# Blender 4.0.2
# www.blender.org
mtllib extended_franka_finger_collision.mtl
o finger
v 0.010360 0.026403 0.000286
v 0.010449 0.002583 0.000272
v -0.010387 0.002534 0.000244
v -0.010479 0.016102 0.035075
v -0.010401 0.026309 0.000308
v -0.010389 0.025220 0.035444
v -0.008730 -0.000024 0.066804
v 0.010400 0.025253 0.035165
v 0.005840 0.014274 0.099385
v 0.008616 0.013989 0.094813
v 0.010495 0.015103 0.034055
v 0.008693 -0.000133 0.092666
v -0.008623 -0.000057 0.094120
v -0.005481 -0.000091 0.099241
v -0.005278 0.014293 0.099470
v -0.007778 0.014218 0.096730
v -0.008841 0.013918 0.093448
v 0.006138 -0.000021 0.098969
v 0.010360 0.026403 0.000286
v 0.010360 0.026403 0.000286
v 0.010449 0.002583 0.000272
v 0.010449 0.002583 0.000272
v -0.010387 0.002534 0.000244
v -0.010387 0.002534 0.000244
v -0.010387 0.002534 0.000244
v -0.010401 0.026309 0.000308
v -0.010401 0.026309 0.000308
v -0.010389 0.025220 0.035444
v -0.010389 0.025220 0.035444
v -0.008730 -0.000024 0.066804
v 0.010400 0.025253 0.035165
v 0.010400 0.025253 0.035165
v 0.005840 0.014274 0.099385
v 0.005840 0.014274 0.099385
v 0.005840 0.014274 0.099385
v 0.008616 0.013989 0.094813
v 0.008616 0.013989 0.094813
v 0.008693 -0.000133 0.092666
v 0.008693 -0.000133 0.092666
v -0.008623 -0.000057 0.094120
v -0.008623 -0.000057 0.094120
v -0.008623 -0.000057 0.094120
v -0.005481 -0.000091 0.099241
v -0.005481 -0.000091 0.099241
v -0.005278 0.014293 0.099470
v -0.005278 0.014293 0.099470
v -0.007778 0.014218 0.096730
v -0.007778 0.014218 0.096730
v -0.008841 0.013918 0.093448
v -0.008841 0.013918 0.093448
v 0.006138 -0.000021 0.098969
v 0.006138 -0.000021 0.098969
vn 0.0004 0.0014 -1.0000
vn 0.0013 0.0006 -1.0000
vn -0.9996 -0.0260 0.0075
vn -0.9999 -0.0095 0.0143
vn -1.0000 0.0047 -0.0009
vn -0.9999 0.0093 0.0145
vn 0.0194 -0.9992 -0.0336
vn 0.0065 -0.9998 -0.0175
vn 0.0024 -0.9993 -0.0385
vn -0.0002 0.9950 0.0999
vn -0.0455 0.9922 0.1160
vn 0.0019 0.9857 0.1683
vn -0.0000 0.0018 -1.0000
vn -0.0011 0.0027 -1.0000
vn 0.9995 0.0034 0.0310
vn 0.9998 -0.0086 0.0186
vn 0.9999 0.0065 0.0083
vn 0.9994 -0.0251 0.0242
vn 0.9999 -0.0124 0.0038
vn 0.9995 0.0033 0.0310
vn -0.8712 -0.4910 0.0028
vn 0.0130 -0.9999 -0.0033
vn 0.0131 -0.9999 -0.0033
vn -0.0021 -1.0000 0.0058
vn 1.0000 0.0037 -0.0010
vn -0.0028 0.9995 0.0320
vn -0.1127 0.9779 0.1759
vn -0.2275 0.9567 0.1814
vn -0.9118 -0.0211 0.4101
vn -0.8022 -0.0241 0.5966
vn -0.8701 -0.0151 0.4926
vn -0.9992 -0.0328 0.0224
vn 0.3923 0.9016 0.1820
vn -0.0045 0.9995 0.0310
vn -0.9996 -0.0027 0.0280
vn -0.9999 0.0094 0.0145
vn -0.6854 0.7111 0.1568
vn 0.0156 -0.0224 0.9996
vn 0.0235 -0.0286 0.9993
vn 0.0076 -0.0160 0.9998
vn 0.0065 -0.9998 0.0204
vn 0.8950 -0.0262 0.4453
vn 0.9252 -0.0521 0.3760
vn -0.0089 -1.0000 -0.0012
vn -0.8022 -0.0241 0.5965
vn -0.7386 -0.0003 0.6741
vn -0.9996 -0.0028 0.0280
vn 0.8548 0.0027 0.5189
vn -0.9514 -0.0000 0.3081
vn -0.9118 -0.0210 0.4101
s 0
f 20//1 22//2 25//1
f 3//3 4//4 27//5
f 27//5 4//4 29//6
f 2//7 30//8 24//9
f 32//10 6//11 35//12
f 25//13 5//14 20//13
f 37//15 11//16 8//17
f 11//16 39//18 21//19
f 37//20 39//18 11//16
f 42//21 23//21 7//21
f 2//7 12//22 30//8
f 12//23 44//24 30//8
f 8//17 11//16 21//19
f 8//17 21//19 1//25
f 32//10 19//26 6//11
f 6//11 46//27 35//12
f 48//28 46//27 6//11
f 40//29 14//30 16//31
f 3//3 13//32 4//4
f 31//33 9//33 36//33
f 19//26 26//34 6//11
f 4//4 50//35 29//36
f 17//37 47//37 28//37
f 34//38 43//38 52//39
f 15//40 43//38 34//38
f 12//22 51//41 44//24
f 18//42 38//43 10//42
f 44//24 41//44 30//8
f 16//31 14//45 45//46
f 13//32 50//47 4//4
f 18//42 10//42 33//48
f 16//31 49//49 40//50
